<svg width="227" height="81" viewBox="0 0 227 81" fill="none" xmlns="http://www.w3.org/2000/svg">
<g clip-path="url(#clip0_36_11)">
<path d="M29.5626 0C40.8673 0 47.9896 3.52332 50.9287 10.5702C51.7578 12.3036 52.1723 13.453 52.1723 14.0182H45.05V16.1661H52.681V16.053C52.681 15.6762 52.5115 14.9979 52.1723 14.0182H65.2297V16.1661H52.8507V16.3356C53.4912 19.3502 53.9435 22.6099 54.2073 26.1146C54.2073 26.303 49.252 26.661 39.3412 27.1885V27.0755C39.3412 18.0692 36.2511 13.5661 30.071 13.5661H28.4883C23.8533 13.5661 21.0268 15.5256 20.0099 19.4445C19.1809 22.7606 18.7664 27.1131 18.7664 32.5018V43.5241L18.6533 45.1632H13.5096V47.7634H18.6533V67.3775H40.4715V46.9721H52.9634V67.3775H46.0107V79.926H31.4838V81H20.1791V79.926H8.70476V73.6517H16.3358V70.9386H4.91762V61.6684H0V50.2502H2.60012C2.48708 45.5022 2.43055 41.7718 2.43055 39.0584C2.43055 26.7361 3.03349 18.9737 4.23933 15.7706C5.33212 12.0777 7.14089 8.89319 9.66566 6.21794C14.1499 2.07286 20.7823 0.000375357 29.5622 0.000375357L29.5626 0ZM19.7275 63.3066H20.4058V66.1328H22.045V66.9806H19.7275C19.5767 66.9806 19.5014 66.8864 19.5014 66.698V63.5892C19.5014 63.4008 19.5767 63.3066 19.7275 63.3066V63.3066ZM36.741 63.3066L37.5889 63.3067C38.0411 63.6835 38.2672 64.0415 38.2672 64.3806C38.3425 64.3806 38.6629 64.0227 39.2281 63.3067H39.9064V63.5893C39.2659 64.4183 38.9455 65.0024 38.9455 65.3415C39.0585 65.3415 39.4165 65.8314 40.0195 66.8112V66.9807H39.2281L38.2672 65.9068C37.928 66.5473 37.6642 66.9053 37.4758 66.9807H36.628C36.8164 66.6038 37.2309 65.9632 37.8715 65.0589L36.741 63.4197V63.3066V63.3066ZM47.9328 68.2242C48.8372 68.4503 49.2894 68.714 49.2894 69.0155V69.5807H48.7242L48.2155 69.0155H47.6502C47.4618 69.0532 47.3676 69.1474 47.3676 69.2981V69.5808C48.7619 69.8446 49.459 70.146 49.459 70.4851V70.9373C49.459 71.6533 49.0445 72.0113 48.2155 72.0113H47.6503C47.1604 72.0113 46.7647 71.7475 46.4633 71.22V70.6547H47.2546C47.2546 71.1069 47.5184 71.333 48.0459 71.333H48.2155C48.3286 71.333 48.4604 71.2012 48.6112 70.9374C48.6112 70.8243 47.9706 70.504 46.6894 69.9764L46.5763 69.6938V69.0155C46.5763 68.7141 47.0285 68.4503 47.9329 68.2242L47.9328 68.2242Z" fill="black"/>
<path d="M97.8782 65.5459C94.95 65.5459 92.9048 64.9416 91.743 63.7332C90.5811 62.5247 90 60.5261 90 57.7374V21.2049C90 19.2063 90.5694 17.6727 91.7081 16.6035C92.8468 15.5344 94.2528 15 95.9261 15H109.242L110.985 24.412H101.294C100.69 24.412 100.388 24.7374 100.388 25.388V55.1578C100.388 55.8085 100.69 56.1339 101.294 56.1339H110.985L109.173 65.5459H97.8782V65.5459ZM125.417 23.8542C124.813 23.8542 124.511 24.1796 124.511 24.8303V55.6458C124.511 56.0176 124.569 56.2849 124.685 56.4475C124.801 56.6102 125.068 56.6915 125.487 56.6915H129.321C129.74 56.6915 130.007 56.6102 130.123 56.4475C130.239 56.2849 130.297 56.0176 130.297 55.6458V24.8303C130.297 24.1796 129.995 23.8542 129.391 23.8542H125.417V23.8542ZM140.546 58.3649C140.546 59.3409 140.43 60.2589 140.197 61.1187C139.965 61.9786 139.57 62.7338 139.012 63.3845C138.454 64.0352 137.711 64.5581 136.781 64.9532C135.852 65.3483 134.69 65.5458 133.295 65.5458H121.582C120.188 65.5458 119.026 65.3483 118.097 64.9532C117.167 64.5581 116.423 64.0352 115.866 63.3845C115.308 62.7338 114.913 61.9786 114.68 61.1187C114.448 60.2589 114.332 59.3409 114.332 58.3649V21.5535C114.332 19.5549 114.878 17.963 115.97 16.7778C117.062 15.5926 118.794 15 121.164 15H133.713C136.084 15 137.815 15.5926 138.907 16.7778C140 17.963 140.546 19.5549 140.546 21.5535V58.3649V58.3649ZM154.768 23.8542V56.6916H159.509C159.928 56.6916 160.195 56.6103 160.311 56.4476C160.427 56.2849 160.485 56.0177 160.485 55.6459V24.8304C160.485 24.1797 160.183 23.8543 159.579 23.8543H154.768V23.8542ZM170.525 57.7374C170.525 60.5261 169.944 62.5246 168.782 63.7332C167.62 64.9417 165.575 65.5459 162.647 65.5459H144.729V15H164.529C166.528 15 168.026 15.5577 169.026 16.6732C170.025 17.7887 170.525 19.276 170.525 21.1352V57.7374V57.7374ZM174.708 15H194.368L196.111 24.412H185.096V36.4036H193.462V45.1184H185.096V56.1339H195.693L193.95 65.5459H174.708V15V15ZM209.707 23.8542V41.2838H214.657C215.307 41.2838 215.633 40.9353 215.633 40.2381V24.9C215.633 24.2028 215.307 23.8542 214.657 23.8542H209.707V23.8542ZM225.602 44.9789C225.602 46.0944 225.219 47.117 224.452 48.0465C223.685 48.9761 222.558 49.4409 221.071 49.4409L226.369 65.5459H215.911L211.031 49.4409H209.707V65.5459H199.597V15H218.77C221.14 15 222.872 15.5926 223.964 16.7778C225.056 17.963 225.602 19.5549 225.602 21.5535V44.9789V44.9789Z" fill="#DCFF03"/>
</g>
<defs>
<clipPath id="clip0_36_11">
<rect width="226.369" height="81" fill="white"/>
</clipPath>
</defs>
</svg>
